<svg xmlns="http://www.w3.org/2000/svg" viewBox="0 0 64 64" role="img" aria-label="My Sessions premium icon">
  <defs>
    <linearGradient id="plate-base" x1="32" y1="6" x2="32" y2="58" gradientUnits="userSpaceOnUse">
      <stop offset="0%" stop-color="#22341f"/>
      <stop offset="56%" stop-color="#111915"/>
      <stop offset="100%" stop-color="#060907"/>
    </linearGradient>
    <radialGradient id="plate-inner-glow" cx="50%" cy="40%" r="52%">
      <stop offset="0%" stop-color="#9bd555" stop-opacity="0.22"/>
      <stop offset="60%" stop-color="#9bd555" stop-opacity="0.06"/>
      <stop offset="100%" stop-color="#9bd555" stop-opacity="0"/>
    </radialGradient>
    <linearGradient id="plate-top-gloss" x1="32" y1="8" x2="32" y2="28" gradientUnits="userSpaceOnUse">
      <stop offset="0%" stop-color="#ffffff" stop-opacity="0.16"/>
      <stop offset="100%" stop-color="#ffffff" stop-opacity="0"/>
    </linearGradient>
    <linearGradient id="plate-bottom-falloff" x1="32" y1="40" x2="32" y2="58" gradientUnits="userSpaceOnUse">
      <stop offset="0%" stop-color="#000000" stop-opacity="0"/>
      <stop offset="100%" stop-color="#000000" stop-opacity="0.32"/>
    </linearGradient>
    <filter id="outer-glow" x="-40%" y="-40%" width="180%" height="180%">
      <feGaussianBlur stdDeviation="2.4" result="blur"/>
      <feColorMatrix in="blur" type="matrix" values="0 0 0 0 0.58 0 0 0 0 0.82 0 0 0 0 0.35 0 0 0 0.34 0"/>
    </filter>
    <filter id="inner-shadow" x="-20%" y="-20%" width="140%" height="140%">
      <feOffset dy="1.4"/>
      <feGaussianBlur stdDeviation="2"/>
      <feComposite in2="SourceAlpha" operator="arithmetic" k2="-1" k3="1"/>
      <feColorMatrix type="matrix" values="0 0 0 0 0.02 0 0 0 0 0.05 0 0 0 0 0.02 0 0 0 0.8 0"/>
    </filter>
    <linearGradient id="leaf-fill-left" x1="18" y1="14" x2="32" y2="31" gradientUnits="userSpaceOnUse">
      <stop offset="0%" stop-color="#fbffbd"/>
      <stop offset="34%" stop-color="#d7f96e"/>
      <stop offset="68%" stop-color="#94d63a"/>
      <stop offset="100%" stop-color="#497d18"/>
    </linearGradient>
    <linearGradient id="leaf-fill-right" x1="32" y1="14" x2="47" y2="31" gradientUnits="userSpaceOnUse">
      <stop offset="0%" stop-color="#fbffbd"/>
      <stop offset="34%" stop-color="#d7f96e"/>
      <stop offset="68%" stop-color="#94d63a"/>
      <stop offset="100%" stop-color="#497d18"/>
    </linearGradient>
    <linearGradient id="stem-fill" x1="31" y1="24" x2="34" y2="48" gradientUnits="userSpaceOnUse">
      <stop offset="0%" stop-color="#efffa9"/>
      <stop offset="38%" stop-color="#b4e250"/>
      <stop offset="100%" stop-color="#4b7f1a"/>
    </linearGradient>
    <radialGradient id="seed-fill" cx="35%" cy="28%" r="78%">
      <stop offset="0%" stop-color="#ffffca"/>
      <stop offset="32%" stop-color="#def773"/>
      <stop offset="68%" stop-color="#93d43a"/>
      <stop offset="100%" stop-color="#446f18"/>
    </radialGradient>
    <linearGradient id="specular-fill" x1="19" y1="15" x2="45" y2="33" gradientUnits="userSpaceOnUse">
      <stop offset="0%" stop-color="#ffffff" stop-opacity="0.92"/>
      <stop offset="100%" stop-color="#ffffff" stop-opacity="0"/>
    </linearGradient>
    <radialGradient id="sprout-shadow" cx="50%" cy="50%" r="50%">
      <stop offset="0%" stop-color="#071006" stop-opacity="0.56"/>
      <stop offset="100%" stop-color="#071006" stop-opacity="0"/>
    </radialGradient>
  </defs>

  <g filter="url(#outer-glow)">
    <rect x="8" y="8" width="48" height="48" rx="15" fill="#94d159" fill-opacity="0.1"/>
  </g>

  <rect x="8" y="8" width="48" height="48" rx="15" fill="url(#plate-base)"/>
  <rect x="8.6" y="8.6" width="46.8" height="46.8" rx="14.4" fill="none" stroke="#a8e35f" stroke-opacity="0.42" stroke-width="0.8"/>
  <rect x="8" y="8" width="48" height="48" rx="15" fill="url(#plate-inner-glow)"/>
  <rect x="8" y="8" width="48" height="48" rx="15" fill="url(#plate-top-gloss)"/>
  <rect x="8" y="8" width="48" height="48" rx="15" fill="url(#plate-bottom-falloff)"/>
  <rect x="8" y="8" width="48" height="48" rx="15" fill="none" filter="url(#inner-shadow)"/>

  <g opacity="0.7">
    <ellipse cx="32" cy="46.2" rx="12.4" ry="8" fill="url(#sprout-shadow)"/>
    <ellipse cx="32" cy="24.5" rx="16.6" ry="10.4" fill="url(#sprout-shadow)" opacity="0.34"/>
  </g>

  <g transform="translate(0.8 1.6)" opacity="0.34">
    <path d="M33.7 31.6c.4 0 .8.2 1 .5 2.2 2.9 3.3 7 3.3 12.1 0 4.9-2.7 8.3-6.9 8.3-4.3 0-6.9-3.2-6.9-8 0-4.9 1.1-9 3.3-12.1.2-.3.6-.5 1-.5h5.2Z" fill="#050906"/>
    <path d="M31.8 23.4c.7 0 1.3.5 1.4 1.1.6 4.3.7 10.2-.5 16.3-.1.6-.6 1-1.2 1-.6 0-1.2-.4-1.3-1-1.3-6.2-1.1-12-.5-16.2.1-.7.7-1.2 1.4-1.2h.7Z" fill="#050906"/>
    <path d="M18.8 17.8c4.6.2 8.5 1.3 11.5 3.5 1.9 1.3 3.1 3 3.6 4.8.2.7-.2 1.5-.9 1.8-1.7.6-3.9.8-6.3.5-5.7-.8-10.8-4.7-12.8-9.2-.5-1.1.1-1.6 1.2-1.4 1.1-.1 2.3-.1 3.7 0Z" fill="#050906"/>
    <path d="M44.1 17.8c1.3-.1 2.6-.1 3.7 0 1.1-.2 1.7.3 1.2 1.4-2 4.5-7.1 8.4-12.8 9.2-2.4.3-4.6.1-6.3-.5-.7-.3-1.1-1.1-.9-1.8.5-1.8 1.7-3.5 3.6-4.8 3.1-2.2 6.9-3.3 11.5-3.5Z" fill="#050906"/>
  </g>

  <g>
    <path d="M32.5 29.8c.7 0 1.3.5 1.4 1.1.6 4.3.7 10.2-.5 16.3-.1.6-.6 1-1.2 1-.6 0-1.2-.4-1.3-1-1.3-6.2-1.1-12-.5-16.2.1-.7.7-1.2 1.4-1.2h.7Z" fill="url(#stem-fill)" stroke="#f3ffd0" stroke-opacity="0.42" stroke-width="0.9"/>
    <path d="M20 15.4c4.6.2 8.5 1.3 11.5 3.5 1.9 1.3 3.1 3 3.6 4.8.2.7-.2 1.5-.9 1.8-1.7.6-3.9.8-6.3.5-5.7-.8-10.8-4.7-12.8-9.2-.5-1.1.1-1.6 1.2-1.4 1.1-.1 2.3-.1 3.7 0Z" fill="url(#leaf-fill-left)" stroke="#f3ffd0" stroke-opacity="0.52" stroke-width="1"/>
    <path d="M44.4 15.4c1.3-.1 2.6-.1 3.7 0 1.1-.2 1.7.3 1.2 1.4-2 4.5-7.1 8.4-12.8 9.2-2.4.3-4.6.1-6.3-.5-.7-.3-1.1-1.1-.9-1.8.5-1.8 1.7-3.5 3.6-4.8 3.1-2.2 6.9-3.3 11.5-3.5Z" fill="url(#leaf-fill-right)" stroke="#f3ffd0" stroke-opacity="0.52" stroke-width="1"/>
    <path d="M31 31.3c.4 0 .8.2 1 .5 2.2 2.9 3.3 7 3.3 12.1 0 4.9-2.7 8.3-6.9 8.3-4.3 0-6.9-3.2-6.9-8 0-4.9 1.1-9 3.3-12.1.2-.3.6-.5 1-.5H31Z" fill="url(#seed-fill)" stroke="#f3ffd0" stroke-opacity="0.54" stroke-width="1.05"/>
  </g>

  <g opacity="0.26" fill="none" stroke="#102909" stroke-width="1.2" stroke-linecap="round">
    <path d="M30.8 23.7 19.4 17.7"/>
    <path d="M32.1 23.6 44.7 17.5"/>
    <path d="M28.4 35.4c-1.7 2.4-2.4 5.4-2.4 8.9"/>
  </g>

  <g opacity="0.72" fill="none" stroke="url(#specular-fill)" stroke-width="1.25" stroke-linecap="round">
    <path d="M21.6 16.9c2.9-.4 6.2.3 9.5 2"/>
    <path d="M42.4 16.9c-2.9-.4-6.2.3-9.5 2"/>
    <path d="M24.8 33.4c1.8-.6 3.9-.7 6.1-.2"/>
  </g>

  <g opacity="0.76" style="mix-blend-mode:screen">
    <path d="M20.6 17.1c2.7-.6 5.7-.4 8.7.6-1.9.3-3.7.9-5.5 1.8-1.6-.9-2.8-1.7-3.2-2.4Z" fill="url(#specular-fill)"/>
    <path d="M38.8 17.5c2.4-.7 4.8-.8 7.2-.3-.6.9-1.9 1.9-3.8 3-1.1-.8-2.3-1.3-3.4-1.8Z" fill="url(#specular-fill)"/>
    <path d="M24.9 33.6c2-.9 3.8-1.1 5.6-.8-1.9 1.6-3.1 3.8-3.8 6.4-.9-1.2-1.4-3-1.8-5.6Z" fill="url(#specular-fill)"/>
  </g>
</svg>
