<svg xmlns="http://www.w3.org/2000/svg" viewBox="0 0 1800 760" role="img" aria-label="My Sessions hero background">
  <defs>
    <linearGradient id="bgWash" x1="0%" y1="50%" x2="100%" y2="50%">
      <stop offset="0%" stop-color="#031108"/>
      <stop offset="46%" stop-color="#07180c"/>
      <stop offset="100%" stop-color="#0a190c"/>
    </linearGradient>
    <radialGradient id="seedCoreGlow" cx="68%" cy="40%" r="22%">
      <stop offset="0%" stop-color="#d7ff8f" stop-opacity="0.34"/>
      <stop offset="46%" stop-color="#94d159" stop-opacity="0.14"/>
      <stop offset="100%" stop-color="#94d159" stop-opacity="0"/>
    </radialGradient>
    <radialGradient id="baseGlow" cx="68%" cy="76%" r="18%">
      <stop offset="0%" stop-color="#d4ff79" stop-opacity="0.58"/>
      <stop offset="24%" stop-color="#b1f05a" stop-opacity="0.26"/>
      <stop offset="62%" stop-color="#94d159" stop-opacity="0.08"/>
      <stop offset="100%" stop-color="#94d159" stop-opacity="0"/>
    </radialGradient>
    <linearGradient id="taprootFill" x1="50%" y1="0%" x2="50%" y2="100%">
      <stop offset="0%" stop-color="#efffb8"/>
      <stop offset="34%" stop-color="#d8ff88"/>
      <stop offset="72%" stop-color="#a3e15a"/>
      <stop offset="100%" stop-color="#5f8f31"/>
    </linearGradient>
    <linearGradient id="taprootHighlight" x1="20%" y1="0%" x2="80%" y2="100%">
      <stop offset="0%" stop-color="#ffffff" stop-opacity="0.74"/>
      <stop offset="100%" stop-color="#ffffff" stop-opacity="0"/>
    </linearGradient>
    <linearGradient id="shellA" x1="0%" y1="0%" x2="100%" y2="100%">
      <stop offset="0%" stop-color="#f6e48a"/>
      <stop offset="36%" stop-color="#bb8c31"/>
      <stop offset="100%" stop-color="#433016"/>
    </linearGradient>
    <linearGradient id="shellB" x1="8%" y1="0%" x2="100%" y2="100%">
      <stop offset="0%" stop-color="#fff0a3"/>
      <stop offset="36%" stop-color="#cfaf53"/>
      <stop offset="100%" stop-color="#594219"/>
    </linearGradient>
    <filter id="softBloom" x="-40%" y="-40%" width="180%" height="180%">
      <feGaussianBlur stdDeviation="12"/>
    </filter>
    <filter id="lineBloom" x="-20%" y="-20%" width="140%" height="140%">
      <feGaussianBlur stdDeviation="2.2"/>
    </filter>
  </defs>

  <rect width="1800" height="760" fill="url(#bgWash)"/>
  <rect width="1800" height="760" fill="url(#seedCoreGlow)"/>

  <g opacity="0.34">
    <path d="M0 650h1800" fill="none" stroke="#94d159" stroke-opacity="0.14" stroke-width="2"/>
    <g stroke="#94d159" stroke-opacity="0.11" stroke-width="1">
      <path d="M80 760 680 650"/>
      <path d="M210 760 770 650"/>
      <path d="M340 760 860 650"/>
      <path d="M470 760 950 650"/>
      <path d="M600 760 1040 650"/>
      <path d="M730 760 1130 650"/>
      <path d="M860 760 1220 650"/>
      <path d="M990 760 1310 650"/>
      <path d="M1120 760 1400 650"/>
      <path d="M1250 760 1490 650"/>
      <path d="M1380 760 1580 650"/>
      <path d="M1510 760 1670 650"/>
    </g>
  </g>

  <g transform="translate(1220 302)" opacity="0.42" fill="none">
    <circle r="292" stroke="#94d159" stroke-opacity="0.22" stroke-width="2.2"/>
    <circle r="238" stroke="#94d159" stroke-opacity="0.2" stroke-width="1.9"/>
    <circle r="186" stroke="#94d159" stroke-opacity="0.18" stroke-width="1.6"/>
    <circle r="134" stroke="#94d159" stroke-opacity="0.15" stroke-width="1.4"/>
    <circle r="82" stroke="#94d159" stroke-opacity="0.12" stroke-width="1.2"/>
    <circle r="36" stroke="#94d159" stroke-opacity="0.08" stroke-width="1"/>
    <path d="M0-330V334" stroke="#94d159" stroke-opacity="0.14" stroke-width="1.5"/>
    <path d="M-336 0H336" stroke="#94d159" stroke-opacity="0.08" stroke-width="1.2"/>
  </g>

  <ellipse cx="1220" cy="650" rx="180" ry="34" fill="url(#baseGlow)" filter="url(#softBloom)"/>
  <g opacity="0.5" fill="none" stroke="#94d159">
    <ellipse cx="1220" cy="650" rx="146" ry="22" stroke-opacity="0.34" stroke-width="2"/>
    <ellipse cx="1220" cy="650" rx="98" ry="14" stroke-opacity="0.22" stroke-width="1.5"/>
    <ellipse cx="1220" cy="650" rx="58" ry="8" stroke-opacity="0.18" stroke-width="1.2"/>
    <path d="M1060 650h320" stroke-opacity="0.1" stroke-width="1.2"/>
    <path d="M1220 608v74" stroke-opacity="0.18" stroke-width="1.4"/>
  </g>

  <g opacity="0.26">
    <circle cx="1010" cy="178" r="2.2" fill="#c4f07f"/>
    <circle cx="1092" cy="248" r="1.8" fill="#9ed45a"/>
    <circle cx="1474" cy="192" r="2.4" fill="#c4f07f"/>
    <circle cx="1418" cy="280" r="1.7" fill="#9ed45a"/>
    <circle cx="1516" cy="348" r="2" fill="#c4f07f"/>
    <circle cx="1036" cy="388" r="1.6" fill="#9ed45a"/>
  </g>

  <g transform="translate(1220 0)">
    <circle cx="0" cy="304" r="122" fill="#9fdf5d" fill-opacity="0.16" filter="url(#softBloom)"/>
    <path d="M-58 165c-28 12-46 42-42 74 2 18 11 34 25 45 6-16 18-32 34-47 18-19 38-33 58-40-15-29-42-44-75-32Z" fill="url(#shellA)" stroke="#ffe7a2" stroke-opacity="0.56" stroke-width="2.4"/>
    <path d="M45 174c18 7 32 22 39 41 10 27 8 57-9 82-17-3-33-14-47-30-15-18-24-38-27-58 12-23 28-38 44-35Z" fill="url(#shellB)" stroke="#ffe5a4" stroke-opacity="0.6" stroke-width="2.4"/>
    <path d="M-8 196c14 7 25 18 31 32 7 12 9 26 10 40-15-2-29-11-41-27-11-14-18-30-19-44 5-2 10-2 19-1Z" fill="#0d160d" fill-opacity="0.7"/>
    <path d="M-62 256c-6 18-10 38-13 58-5 38-2 74 4 106 5 25 3 54-5 82-5 18-5 36 1 55 10-15 15-33 15-55 2-31 7-58 16-84 13-34 18-72 15-112-2-21-7-38-14-51-3-5-15-5-19 1Z" fill="url(#taprootFill)"/>
    <path d="M-74 260c-7 33-10 68-8 102 2 33 1 64-7 96" fill="none" stroke="url(#taprootHighlight)" stroke-width="7.5" stroke-linecap="round" opacity="0.72"/>
    <path d="M-67 456c-3 25-3 45 3 64" fill="none" stroke="#f5ffd3" stroke-opacity="0.56" stroke-width="3.8" stroke-linecap="round"/>
  </g>

  <g opacity="0.16" filter="url(#lineBloom)">
    <path d="M1220 0v760" fill="none" stroke="#d4ff79" stroke-width="1.4"/>
    <path d="M0 650h1800" fill="none" stroke="#d4ff79" stroke-width="1.2"/>
  </g>
</svg>
