<svg xmlns="http://www.w3.org/2000/svg" viewBox="0 0 720 320" role="img" aria-label="Single germinating seed hero illustration">
  <defs>
    <radialGradient id="heroCoreGlow" cx="50%" cy="44%" r="34%">
      <stop offset="0%" stop-color="#c6f78e" stop-opacity="0.36"/>
      <stop offset="42%" stop-color="#94d159" stop-opacity="0.12"/>
      <stop offset="100%" stop-color="#94d159" stop-opacity="0"/>
    </radialGradient>
    <radialGradient id="heroBaseGlow" cx="50%" cy="50%" r="50%">
      <stop offset="0%" stop-color="#ccff7b" stop-opacity="0.42"/>
      <stop offset="28%" stop-color="#94d159" stop-opacity="0.18"/>
      <stop offset="72%" stop-color="#94d159" stop-opacity="0.04"/>
      <stop offset="100%" stop-color="#94d159" stop-opacity="0"/>
    </radialGradient>
    <linearGradient id="seedShellOuter" x1="0%" y1="0%" x2="100%" y2="100%">
      <stop offset="0%" stop-color="#f7e486"/>
      <stop offset="42%" stop-color="#b0882d"/>
      <stop offset="100%" stop-color="#433013"/>
    </linearGradient>
    <linearGradient id="seedShellInner" x1="8%" y1="0%" x2="100%" y2="100%">
      <stop offset="0%" stop-color="#fff0a8"/>
      <stop offset="38%" stop-color="#d1b152"/>
      <stop offset="100%" stop-color="#5f4618"/>
    </linearGradient>
    <linearGradient id="taprootFill" x1="50%" y1="0%" x2="50%" y2="100%">
      <stop offset="0%" stop-color="#efffbf"/>
      <stop offset="38%" stop-color="#d8ff8c"/>
      <stop offset="74%" stop-color="#98d85a"/>
      <stop offset="100%" stop-color="#5d8d2f"/>
    </linearGradient>
    <linearGradient id="taprootHighlight" x1="20%" y1="0%" x2="80%" y2="100%">
      <stop offset="0%" stop-color="#ffffff" stop-opacity="0.68"/>
      <stop offset="100%" stop-color="#ffffff" stop-opacity="0"/>
    </linearGradient>
    <filter id="softBloom" x="-30%" y="-30%" width="160%" height="160%">
      <feGaussianBlur stdDeviation="8"/>
    </filter>
    <filter id="seedGlow" x="-25%" y="-25%" width="150%" height="150%">
      <feGaussianBlur stdDeviation="2.2" result="blur"/>
      <feColorMatrix in="blur" type="matrix" values="0 0 0 0 0.58 0 0 0 0 0.82 0 0 0 0 0.35 0 0 0 0.18 0"/>
    </filter>
  </defs>

  <g opacity="0.62">
    <circle cx="364" cy="128" r="160" fill="none" stroke="rgba(148,209,89,0.08)" stroke-width="1.2"/>
    <circle cx="364" cy="128" r="132" fill="none" stroke="rgba(148,209,89,0.1)" stroke-width="1.1"/>
    <circle cx="364" cy="128" r="104" fill="none" stroke="rgba(148,209,89,0.09)" stroke-width="1"/>
    <circle cx="364" cy="128" r="76" fill="none" stroke="rgba(148,209,89,0.08)" stroke-width="0.9"/>
    <circle cx="364" cy="128" r="48" fill="none" stroke="rgba(148,209,89,0.07)" stroke-width="0.8"/>
    <path d="M364 2v252" fill="none" stroke="rgba(148,209,89,0.06)" stroke-width="1"/>
    <path d="M212 128h304" fill="none" stroke="rgba(148,209,89,0.04)" stroke-width="1"/>
    <path d="M257 43c29 26 57 42 107 47" fill="none" stroke="rgba(148,209,89,0.05)" stroke-width="1"/>
    <path d="M258 212c30-28 65-44 106-49" fill="none" stroke="rgba(148,209,89,0.05)" stroke-width="1"/>
    <path d="M471 43c-29 26-57 42-107 47" fill="none" stroke="rgba(148,209,89,0.05)" stroke-width="1"/>
    <path d="M470 212c-30-28-65-44-106-49" fill="none" stroke="rgba(148,209,89,0.05)" stroke-width="1"/>
  </g>

  <ellipse cx="364" cy="266" rx="126" ry="18" fill="url(#heroBaseGlow)" filter="url(#softBloom)"/>
  <g opacity="0.8">
    <ellipse cx="364" cy="268" rx="98" ry="12" fill="none" stroke="rgba(148,209,89,0.32)" stroke-width="1.2"/>
    <ellipse cx="364" cy="268" rx="66" ry="8" fill="none" stroke="rgba(148,209,89,0.22)" stroke-width="1"/>
    <path d="M236 268h256" fill="none" stroke="rgba(148,209,89,0.06)" stroke-width="1"/>
    <path d="M364 240v44" fill="none" stroke="rgba(148,209,89,0.16)" stroke-width="1.1"/>
  </g>

  <circle cx="364" cy="128" r="72" fill="url(#heroCoreGlow)" filter="url(#softBloom)"/>

  <g transform="translate(0 -6)">
    <g filter="url(#seedGlow)">
      <ellipse cx="353" cy="72" rx="29" ry="42" fill="#9fd85a" fill-opacity="0.12"/>
      <ellipse cx="382" cy="68" rx="22" ry="32" fill="#d8ff8c" fill-opacity="0.12"/>
    </g>

    <path d="M356 28c-19 7-31 27-29 49 1 12 7 23 16 31 4-10 12-21 22-31 12-13 25-22 38-26-10-20-28-31-47-23Z" fill="url(#seedShellOuter)" stroke="#ffe7a0" stroke-opacity="0.56" stroke-width="1.4"/>
    <path d="M393 34c10 4 18 13 22 25 7 18 5 38-5 56-11-2-22-9-31-21-10-12-16-26-18-39 8-15 20-25 32-21Z" fill="url(#seedShellInner)" stroke="#ffe5a3" stroke-opacity="0.62" stroke-width="1.4"/>
    <path d="M360 47c10 5 17 13 22 23 4 9 6 18 6 28-10-2-20-8-29-19-8-10-13-21-14-31 4-2 8-3 15-1Z" fill="#1a2518" fill-opacity="0.72"/>
    <path d="M355 42c8-1 18 3 28 14" fill="none" stroke="#fff6cc" stroke-opacity="0.58" stroke-width="2" stroke-linecap="round"/>

    <path d="M365 82c-3 9-6 20-8 32-4 22-3 42 0 61 2 15 1 29-3 45-2 7-2 15 1 24 5-7 8-16 8-27 1-17 3-32 8-47 6-19 8-40 7-62-1-12-4-22-8-30-1-2-4-2-5 1Z" fill="url(#taprootFill)"/>
    <path d="M360 84c-4 18-6 37-5 56 1 19 0 38-4 57" fill="none" stroke="url(#taprootHighlight)" stroke-width="3.4" stroke-linecap="round" opacity="0.72"/>
    <path d="M357 196c-2 13-2 24 1 34" fill="none" stroke="#f5ffd3" stroke-opacity="0.58" stroke-width="1.8" stroke-linecap="round"/>
  </g>

  <g opacity="0.4">
    <circle cx="294" cy="48" r="1.6" fill="#c9f38f"/>
    <circle cx="309" cy="86" r="1.2" fill="#a6dc6a"/>
    <circle cx="447" cy="58" r="1.5" fill="#c9f38f"/>
    <circle cx="430" cy="104" r="1.1" fill="#9bcf60"/>
    <circle cx="470" cy="140" r="1.2" fill="#c9f38f"/>
    <circle cx="268" cy="146" r="1" fill="#a6dc6a"/>
  </g>
</svg>
