<svg xmlns="http://www.w3.org/2000/svg" viewBox="0 0 96 96" role="img" aria-labelledby="title desc">
  <title id="title">Aurora Calyx Seedworks logo</title>
  <desc id="desc">Fictional demo seed source logo for Cannakan Grow Dev Mode.</desc>
  <defs>
    <linearGradient id="bg" x1="10" x2="86" y1="10" y2="86" gradientUnits="userSpaceOnUse">
      <stop offset="0" stop-color="#143844"/>
      <stop offset="0.44" stop-color="#191727"/>
      <stop offset="1" stop-color="#f2a6ff"/>
    </linearGradient>
    <linearGradient id="petal" x1="28" x2="69" y1="26" y2="70" gradientUnits="userSpaceOnUse">
      <stop offset="0" stop-color="#d7fff7"/>
      <stop offset="1" stop-color="#ffc4f7"/>
    </linearGradient>
  </defs>
  <rect width="96" height="96" rx="22" fill="#100d16"/>
  <rect x="5" y="5" width="86" height="86" rx="19" fill="url(#bg)"/>
  <path d="M48 22c11 10 17 20 17 30 0 11-7 20-17 24-10-4-17-13-17-24 0-10 6-20 17-30Z" fill="url(#petal)"/>
  <path d="M28 38c11 3 19 10 24 21-12 2-23-1-31-11 1-4 3-7 7-10Z" fill="#c6fff2" opacity="0.86"/>
  <path d="M68 38c-11 3-19 10-24 21 12 2 23-1 31-11-1-4-3-7-7-10Z" fill="#ffc9f5" opacity="0.86"/>
  <circle cx="48" cy="54" r="6" fill="#17282e"/>
  <path d="M48 60v15" stroke="#effff9" stroke-width="5" stroke-linecap="round"/>
  <rect x="6" y="6" width="84" height="84" rx="18" fill="none" stroke="#ffffff" stroke-opacity="0.14"/>
</svg>
