<svg xmlns="http://www.w3.org/2000/svg" viewBox="0 0 96 96" role="img" aria-labelledby="title desc">
  <title id="title">Summit Sprout Collective logo</title>
  <desc id="desc">Fictional demo seed source logo for Cannakan Grow Dev Mode.</desc>
  <defs>
    <linearGradient id="bg" x1="12" x2="84" y1="12" y2="86" gradientUnits="userSpaceOnUse">
      <stop offset="0" stop-color="#2d3d43"/>
      <stop offset="0.5" stop-color="#111d23"/>
      <stop offset="1" stop-color="#e8d977"/>
    </linearGradient>
  </defs>
  <rect width="96" height="96" rx="22" fill="#12130d"/>
  <rect x="5" y="5" width="86" height="86" rx="19" fill="url(#bg)"/>
  <path d="M15 68 34 38l12 18 16-27 20 39H15Z" fill="#fff4bb" opacity="0.93"/>
  <path d="m34 38 7 10h-14l7-10Zm28-9 8 16H52l10-16Z" fill="#1b2e32" opacity="0.55"/>
  <path d="M35 73c7-12 20-15 34-9-5 12-17 16-34 9Z" fill="#d8ffc7"/>
  <path d="M37 73c9-1 19-4 30-9" stroke="#213b2d" stroke-width="3" stroke-linecap="round"/>
  <rect x="6" y="6" width="84" height="84" rx="18" fill="none" stroke="#ffffff" stroke-opacity="0.14"/>
</svg>
